<?xml version="1.0" encoding="UTF-8"?>
<!-- Generator: Adobe Illustrator 27.1.1, SVG Export Plug-In . SVG Version: 6.00 Build 0)  -->
<svg xmlns="http://www.w3.org/2000/svg" xmlns:xlink="http://www.w3.org/1999/xlink" version="1.1" id="Layer_1" x="0px" y="0px" width="411.5px" height="135.2px" viewBox="0 0 411.5 135.2" style="enable-background:new 0 0 411.5 135.2;" xml:space="preserve">
<style type="text/css">
	.st0{fill:#232323;}
	.st1{fill:url(#SVGID_1_);}
</style>
<g>
	<g>
		<path class="st0" d="M202.8,44.6c4.2-2.4,6.6-5.4,6.6-10.2c0-6.7-5.5-11.5-13.3-11.5h-22V69h22.9c8.3,0,14.3-5.2,14.3-12.6    C211.4,51.4,208.2,47.2,202.8,44.6L202.8,44.6z M181,28.8h13.5c4.7,0,8,2.8,8,6.7c0,3.8-3.3,6.6-8,6.6H181V28.8z M195.5,63.1H181    V47.9h14.5c5.2,0,8.9,3.2,8.9,7.6S200.7,63.1,195.5,63.1z"></path>
		<path class="st0" d="M242.2,69.9c13.1,0,24-11,24-24c0-13-11-23.9-24-23.9c-13.1,0-24.2,10.9-24.2,23.9    C218.1,58.9,229.2,69.9,242.2,69.9z M242.2,28.3c9.3,0,17.1,8.1,17.1,17.6c0,9.5-7.8,17.7-17.1,17.7c-9.3,0-17.1-8.1-17.1-17.7    C225.1,36.3,233,28.3,242.2,28.3z"></path>
		<path class="st0" d="M292.5,42.5c-7.7-1.8-11.6-3.3-11.6-7.6c0-3.7,3.6-7,8.9-7c4.7,0,9.4,2.1,13.3,5.7l3.9-5.1    c-4.5-3.9-9.8-6.5-17-6.5c-9.3,0-16.1,5.8-16.1,13.6c0,8.3,6.3,11.2,15.8,13.4c7.8,1.7,11.6,3.4,11.6,7.8c0,3.7-3.3,7.1-9.7,7.1    s-11.2-2.6-15.3-6.5l-4.1,5c4.9,4.7,11.4,7.4,19.2,7.4c11,0,16.9-5.9,16.9-13.7C308.2,47.8,301.8,44.7,292.5,42.5L292.5,42.5z"></path>
		<path class="st0" d="M338.9,28.3c4.8,0,9.2,2.2,12.3,5.6l4.8-4.6c-4.4-4.5-10.5-7.3-17.1-7.3c-13.1,0-24.2,10.9-24.2,23.9    c0,13,11.1,24,24.2,24c6.6,0,12.7-2.8,17.1-7.3l-4.8-4.6c-3.1,3.4-7.5,5.6-12.3,5.6c-9.3,0-17.1-8.1-17.1-17.7    C321.8,36.3,329.7,28.3,338.9,28.3z"></path>
		<path class="st0" d="M384.3,69.9c13.1,0,24-11,24-24c0-13-11-23.9-24-23.9c-13.1,0-24.2,10.9-24.2,23.9    C360.1,58.9,371.2,69.9,384.3,69.9z M384.3,28.3c9.3,0,17.1,8.1,17.1,17.6c0,9.5-7.8,17.7-17.1,17.7c-9.3,0-17.1-8.1-17.1-17.7    C367.2,36.3,375,28.3,384.3,28.3z"></path>
		<path class="st0" d="M186.6,105.7c1.7-0.9,2.7-2.3,2.7-4.2c0-2.8-2.4-4.7-5.8-4.7h-9.6v18.9h10c3.6,0,6.2-2.1,6.2-5.1    C190.1,108.4,188.8,106.7,186.6,105.7L186.6,105.7z M177.9,100.2h4.5c1.5,0,2.6,0.9,2.6,2.1c0,1.2-1.1,2.1-2.6,2.1h-4.5V100.2z     M183.1,112.2h-5.2v-4.6h5.2c1.6,0,2.8,1,2.8,2.3S184.7,112.2,183.1,112.2L183.1,112.2z"></path>
		<path class="st0" d="M195,115.7h14.7V112h-10.6v-4.2h9.6v-3.7h-9.6v-3.8h10.6v-3.7H195V115.7z"></path>
		<path class="st0" d="M220.9,96.7l-7.8,18.9h4.6l1.2-3h8.5l1.2,3h4.6l-7.8-18.9H220.9L220.9,96.7z M220.4,109.2l2.8-6.9l2.8,6.9    H220.4z"></path>
		<path class="st0" d="M249.7,107.3c0,2.9-1.9,5-4.5,5c-2.6,0-4.5-2.1-4.5-5V96.7h-4.1v10.7c0,5,3.5,8.5,8.6,8.5    c5.1,0,8.6-3.5,8.6-8.5V96.7h-4.1V107.3z"></path>
		<path class="st0" d="M258.5,100.4h5.9v15.3h4.1v-15.3h5.9v-3.7h-16V100.4z"></path>
		<path class="st0" d="M286.4,105l-4.7-8.3h-4.8l7.5,12.1v6.8h4.1v-6.8l7.4-12.1h-4.6L286.4,105z"></path>
		<path class="st0" d="M318.1,100.1c1.7,0,3.3,0.9,4.4,2.1l3-2.6c-1.9-2-4.5-3.2-7.4-3.2c-5.5,0-10.1,4.5-10.1,9.8    c0,5.3,4.7,9.8,10.1,9.8c2.9,0,5.5-1.2,7.4-3.2l-3-2.6c-1.1,1.3-2.7,2.1-4.4,2.1c-3.2,0-5.9-2.8-5.9-6.1    C312.2,102.9,314.9,100.1,318.1,100.1L318.1,100.1z"></path>
		<path class="st0" d="M333.5,96.7h-4.1v18.9h13.6V112h-9.5V96.7z"></path>
		<path class="st0" d="M351.2,96.7h-4.1v18.9h4.1V96.7z"></path>
		<path class="st0" d="M370.6,109l-9.2-12.2h-4.1v18.9h4.1v-12.2l9.2,12.2h4.1V96.7h-4.1V109z"></path>
		<path class="st0" d="M385,96.7h-4.1v18.9h4.1V96.7z"></path>
		<path class="st0" d="M399.8,100.1c1.7,0,3.3,0.9,4.4,2.1l3-2.6c-1.9-2-4.5-3.2-7.4-3.2c-5.5,0-10.1,4.5-10.1,9.8    c0,5.3,4.7,9.8,10.1,9.8c2.9,0,5.5-1.2,7.4-3.2l-3-2.6c-1.1,1.3-2.7,2.1-4.4,2.1c-3.2,0-5.9-2.8-5.9-6.1    C393.9,102.9,396.6,100.1,399.8,100.1L399.8,100.1z"></path>
	</g>
</g>
<linearGradient id="SVGID_1_" gradientUnits="userSpaceOnUse" x1="19.3322" y1="266.9041" x2="123.4389" y2="354.7832" gradientTransform="matrix(1 0 0 -1 0 389.9255)">
	<stop offset="0" style="stop-color:#B77B12"></stop>
	<stop offset="1" style="stop-color:#8C5514"></stop>
</linearGradient>
<path class="st1" d="M102.9,135c8.3,0,15.5-5.4,18-13.3l17.2-56c2.2-7.3-0.2-15.2-6.2-20l-9.3-7.5l-1.2-1L81.6,5.2  C78.2,2.5,74,1,69.7,1C65.4,1,61.3,2.4,58,5L8.3,44C2.2,48.8-0.3,57,2,64.4l18.4,57.7c2.5,7.8,9.7,13.1,18,13.1h0.1L102.9,135  L102.9,135z M116.6,120.4c-1.8,6-7.3,10.1-13.7,10.1L83,130.6l-0.6-0.8c-1.5-1.9-6.7-8.9-5.6-16c0.7-4.4,3.8-8.2,9.2-11.2  c6.9-3.9,13.2-5.2,19.4-6.4c7.1-1.5,13.9-2.8,20-8.2l1.8-1.6L116.6,120.4L116.6,120.4z M134.9,59.8l-0.9,3.8  c-0.1,0.3-0.1,0.5-0.2,0.8l-1.3,4c-7.5,19-16.1,20.8-28,23.2c-6.2,1.3-13.2,2.7-20.7,6.9c-3.6,2-6.3,4.4-8.3,7l-0.6,0.8l-0.5-0.9  c-1.7-3-3.4-7.6-2-12.3c2.1-7.1,10.8-13,25.3-17c4.9-1.3,9.3-2,13.3-2.5c9.2-1.3,16.5-2.3,21.8-10.6L134.9,59.8z M133,51.6l-0.8,2.4  c-4.5,12.9-11,13.8-21.7,15.3c-4.1,0.6-8.7,1.2-13.8,2.6C83,75.7,74.1,81,70,87.7l-0.6,1l-0.5-1.1c-3.8-7.4-2.9-13.9,2.5-19.7  c0.2-0.2,0.3-0.2,0.4-0.3c9.5-9.8,20-11,28.1-11c3.2,0,6.3,0.2,9.4,0.4c2.6,0.2,5.4,0.4,7.9,0.4c4.3,0,9.8-0.5,13.9-4.1L133,51.6  L133,51.6z M112.9,39.1c2.5,0,4.5,0.9,5.7,1.7l10.4,8.4l-0.5,0.5c-2.3,2.4-5.6,3.4-11.3,3.4c-2.2,0-4.5-0.1-7.6-0.3  c-3-0.2-6.3-0.4-9.7-0.4c-1.6,0-3,0-4.5,0.1l-1.9,0.1l1.5-1.3c1.8-1.6,3.6-3.3,5.3-5.1c4.2-4.6,8.5-7,12.5-7L112.9,39.1L112.9,39.1z   M99.2,25.5l0.3-0.1l11.5,9.3l-1.4,0.3c-4.3,0.9-8.6,3.6-12.8,8.1C95,45.2,93.1,47,91,48.8l-1.9,1.6l0.9-2.3  c1.7-4.7,2.5-9.6,3.1-13.9C94.1,27,98.4,25.7,99.2,25.5L99.2,25.5z M88.3,17.8l-0.1-1.5l7.3,5.9l-0.7,0.5c-2.3,1.5-5.3,4.6-6.2,10.8  c-1.5,9.9-3.2,17.9-10.1,23.3L78,57.2c-2.3,1.3-6,4.3-6,4.3s-1,0.8-1.1,0.9c-1.4,1.3-3.8,3.5-5.7,6.6l-0.6,0.9l-0.6-0.9  c-2.2-3.4-3.7-7.5-4.5-12.5c-0.1-0.5-0.2-2.5-0.2-2.9c0.5-9.2,6.6-12.8,13.5-17c4.6-2.8,9.3-5.6,12.8-10.2  C87.6,23.7,88.5,20.8,88.3,17.8L88.3,17.8z M69.4,5.5h0.3c3.3,0,6.5,1.1,9,3.2c0,0,0.8,0.8,0.9,1c2.2,2.2,6.8,8.2,2.4,14  c-3,3.9-7.1,6.4-11.5,9.1c-3.8,2.3-7.7,4.7-10.8,8.1l-1.2,1.3l0-1.8c0.3-22.5,8.2-32.2,10.6-34.7L69.4,5.5L69.4,5.5z M41.6,23.6  L61.9,7.7l-1.4,2.7c-2.9,5.7-6.4,15.7-6.4,31.2c0,3.6,0,8.3,0.7,13.3l0.3,1.9c1.2,7.2,3.7,13.1,7.4,17.5l0.2,0.2l-0.1,0.3  c-1.4,6,0.2,12.4,4.9,19.2l0.1,0.2l0,0.2c-1,7.1,2.7,13.4,5,16.5l0.2,0.2l-0.1,0.3c-0.1,0.5-0.2,1-0.3,1.5c-1,6.5,1.8,12.6,4.3,16.5  l0.6,1l-19.7,0.1l0.2-0.8c2.4-9.2,1.8-18.8-1.7-28.6L56,101l0.2-0.3c7.9-11.4-0.6-31.6-9.7-41.9l-0.7-1c-1.7-2.4-3.2-4.9-4.5-7.4  c-6.5-12.4-1.7-23.2-0.4-25.8L41.6,23.6L41.6,23.6z M34.6,29.1l-0.3,1.7C33,37,33.5,43,35.7,48.9l0.6,1.6l-1.5-0.7  c-6.2-3.1-13.2-4.2-20.4-3.2l-2.4,0.3L34.6,29.1L34.6,29.1z M6.6,54.6c0,0,0.1-1.6,0.3-1.6c0.1,0,0.2-0.1,0.2-0.1  c1.7-0.7,6.3-2.4,12.2-2.4c9,0,17.3,3.9,23.9,11.3c7.6,8.5,15.4,26.1,9.8,35.7l-0.3,0.5l-0.5-0.2C28,88.4,16.9,77.1,11.8,69.3  C7.2,62.2,6.6,56.5,6.6,54.6L6.6,54.6z M11.3,76.3l1.7,1.9c8.5,9.4,21.3,17.4,38,23.9l1.3,0.5l-1.2,0.7c-3.3,1.9-8.5,3.1-13.2,3.1  c-3,0-5.7-0.5-8.2-1.4C18,100.6,13.3,85.2,11.9,78.8L11.3,76.3L11.3,76.3z M37.7,130.7c-6-0.3-11.2-4.2-13-9.9l-5.6-17.4l1.7,1.5  c2.2,1.9,4.7,3.3,7.3,4.3c2.9,1.1,6.3,1.6,9.8,1.6c5.2,0,10.5-1.2,14.5-3.2l0.7-0.4l0.2,0.8c1.9,7.7,1.8,15.2-0.4,22.2l-0.1,0.5  l-13.9,0L37.7,130.7L37.7,130.7z"></path>
</svg>
