<?xml version="1.0" encoding="UTF-8"?>
<!DOCTYPE svg PUBLIC "-//W3C//DTD SVG 1.1//EN" "http://www.w3.org/Graphics/SVG/1.1/DTD/svg11.dtd">
<!-- Creator: CorelDRAW 2019 (64-Bit) -->
<svg xmlns="http://www.w3.org/2000/svg" xml:space="preserve" width="764px" height="299px" version="1.1" style="shape-rendering:geometricPrecision; text-rendering:geometricPrecision; image-rendering:optimizeQuality; fill-rule:evenodd; clip-rule:evenodd"
viewBox="0 0 764 298.98"
 xmlns:xlink="http://www.w3.org/1999/xlink"
 xmlns:xodm="http://www.corel.com/coreldraw/odm/2003">
 <defs>
  <style type="text/css">
   <![CDATA[
    .fil0 {fill:#1F294F}
   ]]>
  </style>
 </defs>
 <g id="Warstwa_x0020_1">
  <metadata id="CorelCorpID_0Corel-Layer"/>
  <path class="fil0" d="M245.88 72.54l4.32 -22.86 -38.21 -0.06 -53.28 249.56 39.73 0.04 19.93 -93.15c7.76,7.68 12.85,22.12 36.67,28.24 19.33,4.97 40.37,3.03 56.7,-5.01 26.21,-12.91 46.98,-40.48 54.35,-76.7 14.39,-70.72 -20.64,-121.81 -80.25,-106.27 -24.74,6.45 -33.29,21.28 -39.96,26.21zm160.1 22.79l35.81 3.84c8.93,-21.36 21.64,-26.19 48.23,-24.7 26.48,1.49 29.29,18.78 25.01,43.93 -28.63,1.44 -62.6,0.97 -88.44,9.6 -24.5,8.18 -43.2,23.33 -45.41,52.45 -4.7,61.82 64.63,68.26 101.17,39.35 2.93,-2.31 4.25,-3.02 6.71,-5.3 2.77,-2.58 3.89,-4.03 6.97,-5.93l-4.45 22.88 37.46 -0.02c2.79,-6.32 7.45,-33.39 9.22,-41.78 3,-14.21 6.12,-28.74 9.13,-42.82 5.98,-27.92 15.8,-62.81 -4.23,-83.55 -20.4,-21.11 -53.19,-22.64 -82.09,-16.8 -29.53,5.98 -47.39,21.54 -55.09,48.85zm150.87 168.04l-10.31 30.37c17.69,4.2 30.79,9.24 50.44,2.66 15.42,-5.16 24.88,-15.8 32.52,-26.51 20.03,-28.09 68.59,-111.42 89.82,-146.3l44.48 -73.86 -44.83 -0.11c-6.05,8.44 -52.81,95.68 -63.22,113.45 -2.44,4.17 -6.54,13.62 -9.96,16.52l-22.92 -129.88 -43.69 -0.09c0.29,6.32 33.11,148.33 36.75,163.98 1.88,8.06 3.58,8.98 -0.32,15.39 -6.56,10.78 -16.02,28.55 -25.42,34.64 -11.45,7.41 -22.24,1.9 -33.34,-0.26zm-465.05 -213.75l-85.04 0 -6.97 30.99 86.46 0.27c0.18,8.45 -8.81,44.08 -11.07,54.88 -3.36,16.05 -10.41,40.81 -10.09,56.72 0.89,45.01 47.21,49.3 86.62,36.98l-5.77 -29.57c-16.25,2.85 -39.8,8.76 -40.62,-13.41 -0.36,-9.92 7.02,-38.28 9.38,-49.24 3.42,-15.95 6.83,-31.92 10.11,-47.87 2.18,-10.6 -0.8,-8.5 20.02,-8.5 36.29,0 29.74,4.1 33.74,-14.82 1.04,-4.96 2.91,-11.67 3.11,-16.43l-48.36 0 10.4 -48.86 -39.65 -0.17 -9.42 43.57c-0.91,4.34 -0.08,3.83 -2.85,5.46zm189.5 28.6c-32.04,7.37 -44.65,32.26 -50.55,63.05 -7.11,37.11 4.86,68.18 45.95,62.82 59.69,-7.78 74.62,-141.98 4.6,-125.87zm139.68 104.22c0,33.4 47.82,25.45 69.18,6.13 9.58,-8.67 15.99,-25.42 18.68,-43.29 -14.77,-0.65 -43.2,1.8 -56.98,5.06 -17.71,4.18 -30.88,11.93 -30.88,32.1z"/>
 </g>
</svg>
